<svg viewBox="0 0 512 512" xmlns="http://www.w3.org/2000/svg" xmlns:xlink="http://www.w3.org/1999/xlink"><linearGradient id="a" gradientTransform="matrix(1.0606 0 0 1.0606 -62.005 -15.504)" gradientUnits="userSpaceOnUse" x1="211.18" x2="349.73" y1="370.82" y2="232.27"><stop offset="0" stop-color="#249eff"/><stop offset="1" stop-color="#2777ff"/></linearGradient><linearGradient id="b" gradientTransform="matrix(1.0606 0 0 1.0606 -62.005 -15.504)" gradientUnits="userSpaceOnUse" x1="211.18" x2="349.73" xlink:href="#a" y1="370.82" y2="232.27"/><linearGradient id="c" gradientTransform="matrix(1.2053 0 0 1.2067 -106.23 -52.911)" gradientUnits="userSpaceOnUse" x1="211.18" x2="349.73" xlink:href="#a" y1="370.82" y2="232.27"/><g transform="translate(.55099)"><g stroke-width=".99998"><circle cx="255.99" cy="256" fill="url(#b)" r="225"/><path d="m480.77 249.78a225 225 0 0 1 -224.78 220.6 225 225 0 0 1 -224.78-218.8 225 225 0 0 0 -.21958 4.4016 225 225 0 0 0 225 225 225 225 0 0 0 225-225 225 225 0 0 0 -.21957-6.2143z" opacity=".3"/><path d="m255.99 31.001a225 225 0 0 0 -225 225 225 225 0 0 0 .21958 6.2039 225 225 0 0 1 224.78-220.59 225 225 0 0 1 224.78 218.79 225 225 0 0 0 .21957-4.3914 225 225 0 0 0 -225-225z" fill="#fff" opacity=".1"/><ellipse cx="255.14" cy="256" fill="url(#c)" rx="255.69" ry="256" stroke-width="1.1371"/></g><path d="m511.2 248.92a255.69 256 0 0 1 -255.44 250.99 255.69 256 0 0 1 -255.44-248.95 255.69 256 0 0 0 -.24953 5.0082 255.69 256 0 0 0 255.69 256 255.69 256 0 0 0 255.69-256 255.69 256 0 0 0 -.24952-7.0704z" opacity=".3" stroke-width="1.1371"/><path d="m255.76.0011354a255.69 256 0 0 0 -255.69 256 255.69 256 0 0 0 .24953 7.0586 255.69 256 0 0 1 255.44-250.98 255.69 256 0 0 1 255.44 248.92 255.69 256 0 0 0 .24952-4.9964 255.69 256 0 0 0 -255.69-256z" fill="#fff" opacity=".1" stroke-width="1.1371"/><g stroke-width=".66721"><path d="m311.67 204.63c-8.9859-2.8536-20.241-5.9462-27.901-5.9462-8.6643 0-12.511-.90427-19.949-4.6835-6.5652-3.3353-10.176-6.288-12.379-10.354-2.202-4.0654-3.1301-9.7332-3.1301-18.672v-16.383l-14.196-5.5735c-41.238-16.188-83.361-21.615-162.38-21.122-11.223.0699-19.647.12325-25.586.18765-5.9385.0644-9.1841.11274-10.847.26845-.2079.0195-.39219.0374-.64896.0847-.12838.0236-.27093.0499-.51083.1264-.23991.0765-.57103.0504-1.35.79885-.38952.37423-.95724 1.1475-1.0243 2.2075-.06705 1.06.43462 1.9737.81706 2.4134.76488.87938 1.1263.85883 1.3709.95258.48916.18751.64776.19037.85222.22674.818.14549 1.7147.2131 3.1848.32578 2.9403.22536 7.7176.51231 14.104.89526 75.641 4.536 122.62 11.76 161.73 24.739l3.4651 1.1507-14.651.56296c-67.708 2.605-118.58 7.4367-162.87 15.496-13.405 2.439-21.377 3.9599-26.03 5.0809-2.3264.56055-3.7483.93636-5.0627 1.6133-.65719.33848-1.5298.68161-2.1698 2.175-.31999.74667-.37152 1.8053-.12249 2.5789.24902.77363.65194 1.2514.97732 1.5768.81386.81386 1.2585.81359 1.5559.89526.29743.0817.48177.1041.65027.1238.337.0394.59398.0457.88351.0482.5791.005 1.2497-.0217 2.0785-.0691 1.6577-.0946 3.9112-.28154 6.6512-.54601 5.48-.52896 12.878-1.368 20.918-2.3939 42.17-5.3813 81.733-8.9379 115.1-10.352 15.244-.64636 36.083-.52447 53.032.0547 1.8544.0634 2.913.1815 4.6626.25541-35.416 5.7933-92.888 24.49-129.04 42.369-10.457 5.1702-20.717 10.947-28.231 15.712-3.7569 2.3827-6.8115 4.4926-8.9632 6.2551-1.0757.88118-1.9174 1.6334-2.6323 2.5489-.35748.45777-.72452.93609-.97999 1.8362-.25546.90006-.08917 2.706.93175 3.727 1.2359 1.2359 2.056.99887 2.459.99687.40303-.002.60963-.0468.80011-.0847.381-.0758.64927-.16131.96044-.26324.62228-.20384 1.3503-.48128 2.2584-.84835 1.816-.73413 4.3062-1.8155 7.3406-3.1796 6.0688-2.7283 14.288-6.5826 23.235-10.922 52.224-23.339 96.411-40.206 158.98-42.823.89766 1.8893 1.9954 4.3368 3.186 7.1544l5.4446 12.477c-51.997 32.877-35.652 108.59 21.731 118.19 7.5508 1.2335 16.148 1.9705 26.036 2.3632 30.078 1.1947 40.907 4.1385 60.891 16.527 15.009 9.3049 28.051 22.962 38.329 40.263 4.0721 6.8542 9.0273 18.101 12.871 28.605 1.922 5.2523 3.5778 10.336 4.7395 14.6 1.1617 4.2646 1.7914 7.8363 1.7957 9.409.005 1.9401.24211 3.6991.75975 5.2556.25881.77823.56708 1.5151 1.1624 2.2792.59532.76408 1.7476 1.7566 3.3973 1.7566 1.0937 0 2.2076-.59405 2.7952-1.2028.58756-.60874.84035-1.1757 1.0295-1.681.37824-1.0108.48275-1.9087.55775-2.9503.14999-2.0832.0358-4.6688-.26063-7.7369-.59295-6.1358-1.9597-14.085-3.9159-21.937-6.5926-26.462-23.925-53.822-45.578-72.465 28.163 9.3462 50.969 30.455 59.336 55.05.43269 1.2719.93235 2.3398 1.8635 3.34.46557.50005 1.0566 1.0633 2.1828 1.3605 1.1262.29715 2.8646-.15409 3.7153-1.0048 1.7-1.7 1.3833-3.1338 1.3005-4.372-.0828-1.2383-.34719-2.527-.72979-3.9889-.76515-2.9238-2.0363-6.4796-3.611-10.284-3.1494-7.6095-7.436-16.078-11.483-21.576-15.054-20.449-46.908-37.269-82.78-44.641-8.5556-1.7581-27.951-4.72-43.986-4.72-1.1671 0-16.816-1.3152-22.482-1.8099-57.063-4.9828-53.228-86.924 5.0926-86.924 8.2907 0 13.419.37184 21.095 2.5815s17.924 6.345 35.641 13.86c7.7282 3.2782 12.087 5.3244 14.304 6.8442s2.4138 2.0404 3.0702 4.2495c.79812 2.6859.96265 6.5005 3.2787 8.663 2.316 2.1628 12.046 5.4581 16.361 7.8537 7.3566 4.3084 11.087 6.9076 17.509 15.303 6.8369-8.8231 9.7265-9.08 17.83-11.78-12.084-1.3492-28.116-13.621-19.938-14.921-7.388-6.623-9.0673-18.263-12.662-20.265-.83487-.71405-1.7752-1.2243-2.747-1.6289l-14.808-1.5008c-15.914-9.4123-39.012-20.931-50.658-24.665zm66.137 23.649c0-1.2224-.3582-1.6979-.61247-2.1502s-.51997-.81666-.81966-1.1963c-.59941-.75928-1.3383-1.5552-2.2362-2.4564-20.302-19.282-45.466-34.116-71.498-43.267-1.928-.67121-3.5018-1.1509-4.9102-1.3891-.70424-.11913-1.3281-.23582-2.3339-.0573-.50288.0892-1.1808.25701-1.9117.89005-.73092.63303-1.2576 1.8534-1.2576 2.7614 0 1.2355.42719 1.6858.63854 1.9834.21135.29758.35937.43703.48476.55644.2508.23883.42068.36135.60206.49259.36275.26247.74406.50454 1.2158.79098.94356.57293 2.2164 1.2906 3.7791 2.1411 20.272 9.7065 36.28 16.203 52.446 29.501 5.5291 4.0404 6.9336 8.4088 13.303 9.3869z" opacity=".3"/><path d="m311.67 194.63c-8.9859-2.8536-20.241-5.9462-27.901-5.9462-8.6643 0-12.511-.90427-19.949-4.6835-6.5652-3.3353-10.176-6.288-12.379-10.354-2.202-4.0654-3.1301-9.7332-3.1301-18.672v-16.383l-14.196-5.5735c-41.238-16.188-83.361-21.615-162.38-21.122-11.223.0699-19.647.12325-25.586.18765-5.9385.0644-9.1841.11274-10.847.26845-.2079.0195-.39219.0374-.64896.0847-.12838.0236-.27093.0499-.51083.1264-.23991.0765-.57103.0504-1.35.79885-.38952.37423-.95724 1.1475-1.0243 2.2075-.06705 1.06.43462 1.9737.81706 2.4134.76488.87938 1.1263.85883 1.3709.95258.48916.18751.64776.19037.85222.22674.818.14549 1.7147.2131 3.1848.32578 2.9403.22536 7.7176.51231 14.104.89526 75.641 4.536 122.62 11.76 161.73 24.739l3.4651 1.1507-14.651.56296c-67.708 2.605-118.58 7.4367-162.87 15.496-13.405 2.439-21.377 3.9599-26.03 5.0809-2.3264.56055-3.7483.93636-5.0627 1.6133-.65719.33848-1.5298.68161-2.1698 2.175-.31999.74667-.37152 1.8053-.12249 2.5789.24902.77363.65194 1.2514.97732 1.5768.81386.81386 1.2585.81359 1.5559.89526.29743.0817.48177.1041.65027.1238.337.0394.59398.0457.88351.0482.5791.005 1.2497-.0217 2.0785-.0691 1.6577-.0946 3.9112-.28154 6.6512-.54601 5.48-.52896 12.878-1.368 20.918-2.3939 42.17-5.3813 81.733-8.9379 115.1-10.352 15.244-.64636 36.083-.52447 53.032.0547 1.8544.0634 2.913.1815 4.6626.25541-35.416 5.7933-92.888 24.49-129.04 42.369-10.457 5.1702-20.717 10.947-28.231 15.712-3.7569 2.3827-6.8115 4.4926-8.9632 6.2551-1.0757.88118-1.9174 1.6334-2.6323 2.5489-.35748.45777-.72452.93609-.97999 1.8362-.25546.90006-.08917 2.706.93175 3.727 1.2359 1.2359 2.056.99887 2.459.99687.40303-.002.60963-.0468.80011-.0847.381-.0758.64927-.16131.96044-.26324.62228-.20384 1.3503-.48128 2.2584-.84835 1.816-.73413 4.3062-1.8155 7.3406-3.1796 6.0688-2.7283 14.288-6.5826 23.235-10.922 52.224-23.339 96.411-40.206 158.98-42.823.89766 1.8893 1.9954 4.3368 3.186 7.1544l5.4446 12.477c-51.997 32.877-35.652 108.59 21.731 118.19 7.5508 1.2335 16.148 1.9705 26.036 2.3632 30.078 1.1947 40.907 4.1385 60.891 16.527 15.009 9.3049 28.051 22.962 38.329 40.263 4.0721 6.8542 9.0273 18.101 12.871 28.605 1.922 5.2523 3.5778 10.336 4.7395 14.6 1.1617 4.2646 1.7914 7.8363 1.7957 9.409.005 1.9401.24211 3.6991.75975 5.2556.25881.77823.56708 1.5151 1.1624 2.2792.59532.76408 1.7476 1.7566 3.3973 1.7566 1.0937 0 2.2076-.59405 2.7952-1.2028.58756-.60874.84035-1.1757 1.0295-1.681.37824-1.0108.48275-1.9087.55775-2.9503.14999-2.0832.0358-4.6688-.26063-7.7369-.59295-6.1358-1.9597-14.085-3.9159-21.937-6.5926-26.462-23.925-53.822-45.578-72.465 28.163 9.3462 50.969 30.455 59.336 55.05.43269 1.2719.93235 2.3398 1.8635 3.34.46557.50005 1.0566 1.0633 2.1828 1.3605 1.1262.29715 2.8646-.15409 3.7153-1.0048 1.7-1.7 1.3833-3.1338 1.3005-4.372-.0828-1.2383-.34719-2.527-.72979-3.9889-.76515-2.9238-2.0363-6.4796-3.611-10.284-3.1494-7.6095-7.436-16.078-11.483-21.576-15.054-20.449-46.908-37.269-82.78-44.641-8.5556-1.7581-27.951-4.72-43.986-4.72-1.1671 0-16.816-1.3152-22.482-1.8099-57.063-4.9828-53.228-86.924 5.0926-86.924 8.2907 0 13.419.37184 21.095 2.5815s17.924 6.345 35.641 13.86c7.7282 3.2782 12.087 5.3244 14.304 6.8442s2.4138 2.0404 3.0702 4.2495c.79812 2.6859.96265 6.5005 3.2787 8.663 2.316 2.1628 12.046 5.4581 16.361 7.8537 7.3566 4.3084 11.087 6.9076 17.509 15.303 6.8369-8.8231 9.7265-9.08 17.83-11.78-12.084-1.3492-28.116-13.621-19.938-14.921-7.388-6.623-9.0673-18.263-12.662-20.265-.83487-.71405-1.7752-1.2243-2.747-1.6289l-14.808-1.5008c-15.914-9.4123-39.012-20.931-50.658-24.665zm66.137 23.649c0-1.2224-.3582-1.6979-.61247-2.1502s-.51997-.81666-.81966-1.1963c-.59941-.75928-1.3383-1.5552-2.2362-2.4564-20.302-19.282-45.466-34.116-71.498-43.267-1.928-.67121-3.5018-1.1509-4.9102-1.3891-.70424-.11913-1.3281-.23582-2.3339-.0573-.50288.0892-1.1808.25701-1.9117.89005-.73092.63303-1.2576 1.8534-1.2576 2.7614 0 1.2355.42719 1.6858.63854 1.9834.21135.29758.35937.43703.48476.55644.2508.23883.42068.36135.60206.49259.36275.26247.74406.50454 1.2158.79098.94356.57293 2.2164 1.2906 3.7791 2.1411 20.272 9.7065 36.28 16.203 52.446 29.501 5.5291 4.0404 6.9336 8.4088 13.303 9.3869z" fill="#fff"/></g></g></svg>