<svg enable-background="new 0 0 129.17 103.34" viewBox="0 0 90 90" xmlns="http://www.w3.org/2000/svg"><g stroke-width=".6467"><path d="m54.057 48.198c-1.093-1.7396-2.6257-3.2141-4.3912-4.2489-1.6426-.96358-3.4922-1.5456-5.3936-1.7008l.68551-1.2804c1.9013.23281 3.7379.85363 5.387 1.8237.4333.25869.85363.53677 1.2611.83427l-4.9344-9.2089-7.3789 13.788h-1.5262l3.0913-5.7751c-1.4227.27162-2.7938.78251-4.0484 1.5198-1.7784 1.0412-3.2788 2.5092-4.3653 4.2553h-1.5586c.06472-.1164.12934-.23928.20048-.35569 1.2158-2.0888 2.9619-3.835 5.0443-5.0637 1.6944-.99593 3.5763-1.6168 5.5229-1.8367l5.0249-9.3835 8.9119 16.633z" fill="#f93822"/><path d="m20.583 51.588h-1.3516l-3.1882 7.0491h1.371l.87307-1.9983h3.24l.87307 1.9983h1.3645zm-1.8302 3.9773 1.1511-2.7097 1.177 2.7097zm11.194 2.4898-2.5286-4.7145v5.2965h-1.2094v-7.0491h1.5844l2.6645 5.0249 2.6644-5.0249h1.5844v7.0491h-1.2028v-5.2965l-2.5286 4.7145zm11.951-6.4671h-3.628v7.0491h1.2028v-2.7485h2.4898c1.4356 0 2.3217-.85363 2.3217-2.2376.0069-1.3322-.84072-2.063-2.3863-2.063zm-.06471 3.2335h-2.3604v-2.16h2.5415c.67904 0 1.0671.36861 1.0671 1.0153.0069.75665-.42036 1.1447-1.2482 1.1447zm10.58 3.8156h-5.8009v-7.0491h5.8009v1.0671h-4.5916v1.8043h4.3653v1.0671h-4.3653v2.0371h4.5916zm17.901 0h-5.7945v-7.0491h5.7945v1.0671h-4.5916v1.8043h4.3653v1.0671h-4.3653v2.0371h4.5916zm-9.8302-2.9619c.76958-.3363 1.2094-1.0476 1.2094-2.0242 0-1.3322-.84718-2.063-2.3928-2.063h-3.8738v7.0491h1.2028v-2.7485h2.5998l1.4551 2.7485h1.3646zm-1.2416-.85363h-2.5998v-2.16h2.7873c.67905 0 1.0671.36861 1.0671 1.0153 0 .75665-.42681 1.1447-1.2546 1.1447z"/><path d="m73.956 57.524c0 .6079-.47856 1.0864-1.0994 1.0864-.61437 0-1.1059-.47856-1.1059-1.0864 0-.59498.4915-1.0735 1.1059-1.0735.62083 0 1.0994.47856 1.0994 1.0735zm-1.9336 0c0 .47856.3557.86008.84072.86008.4721 0 .82132-.38156.82132-.85363 0-.47856-.34921-.86662-.82774-.86662-.47856.0069-.83427.38802-.83427.86008zm.65965.5691h-.24575v-1.0735c.097-.0194.23281-.03227.41389-.03227.20048 0 .29748.03227.37508.0776.0582.0453.10348.12934.10348.23282 0 .1164-.09054.20694-.21988.24575v.01287c.10347.0388.16168.11641.19401.26515.03229.16168.0517.22635.0776.27162h-.27162c-.03229-.0388-.0517-.13581-.08406-.26515-.0194-.11641-.08408-.16814-.21988-.16814h-.1164v.43328zm.0069-.61438h.11641c.1358 0 .24575-.0453.24575-.15521 0-.097-.07112-.16167-.22635-.16167-.0647 0-.10994.0069-.13581.01288z"/></g></svg>