<svg viewBox="0 0 90 90" xmlns="http://www.w3.org/2000/svg"><g stroke-width=".88757"><path d="m84.053 39.541-4.9704-1.1538-.88758-.35503-22.811.17752v11.006l28.669.08879z" fill="#fff"/><path d="m74.734 48.24c.26627-.88758.17752-1.7752-.26627-2.3077-.44379-.53255-1.0651-.88758-1.8639-.97634l-15.444-.17751c-.08879 0-.17751-.08879-.26628-.08879-.08879-.08879-.08879-.17752 0-.26627.08879-.17752.17752-.26628.35504-.26628l15.533-.17751c1.8639-.08879 3.8166-1.5976 4.5266-3.3728l.88758-2.3077c0-.08879.08879-.17752 0-.26627-.97632-4.5266-5.0592-7.8994-9.8521-7.8994-4.4379 0-8.2544 2.8402-9.5858 6.8343-.88757-.6213-1.9527-.97633-3.1953-.88757-2.1302.17751-3.8166 1.9527-4.0828 4.0828-.08879.53255 0 1.0651.08879 1.5976-3.4615.08879-6.3018 2.929-6.3018 6.4793 0 .35503 0 .6213.08879.97634 0 .17751.17752.26627.26627.26627h28.491c.17752 0 .35503-.08879.35503-.26627z" fill="#f48120"/><path d="m79.615 38.299h-.44379c-.08879 0-.17751.08879-.26627.17751l-.6213 2.1302c-.26627.88757-.17751 1.7751.26628 2.3077.44379.53254 1.0651.88757 1.8639.97633l3.284.17751c.08879 0 .17752.08879.26627.08879.08879.08879.08879.17752 0 .26627-.08879.17752-.17751.26627-.35502.26627l-3.3728.17752c-1.8639.08879-3.8166 1.5976-4.5266 3.3728l-.17751.79882c-.08879.08879 0 .26628.17751.26628h11.716c.17751 0 .26627-.08879.26627-.26628.17751-.71006.35503-1.5089.35503-2.3077 0-4.6154-3.8166-8.432-8.432-8.432" fill="#faad3f"/><path d="m89.201 54.275c-.44379 0-.79881-.35503-.79881-.79881 0-.44379.35502-.79882.79881-.79882s.79882.35503.79882.79882-.35503.79881-.79882.79881m0-1.4201c-.35503 0-.6213.26627-.6213.6213 0 .35502.26628.6213.6213.6213.35503 0 .62131-.26627.62131-.6213s-.26628-.6213-.62131-.6213m.35503 1.0651h-.17751l-.17752-.26628h-.17752v.26628h-.17751v-.79882h.44379c.17751 0 .26627.08879.26627.26627 0 .08879-.08879.17752-.17751.26627zm-.26627-.44379c.08879 0 .08879 0 .08879-.08879s-.08879-.08879-.08879-.08879h-.26627v.26627h.26627zm-79.615-.79882h1.9527v5.3254h3.3728v1.6864h-5.3254zm7.3669 3.4615c0-2.0414 1.5976-3.639 3.8166-3.639 2.2189 0 3.7278 1.5976 3.7278 3.639s-1.5976 3.6391-3.8166 3.6391c-2.1302 0-3.7278-1.5976-3.7278-3.6391m5.5917 0c0-1.0651-.71006-1.9527-1.7751-1.9527-1.0651 0-1.7751.88757-1.7751 1.8639s.71006 1.8639 1.7751 1.8639c1.0651.17752 1.7751-.71006 1.7751-1.7752m4.3491.44379v-3.9053h1.9527v3.9053c0 .97634.53255 1.5089 1.3314 1.5089.79882 0 1.3314-.44379 1.3314-1.4201v-3.9941h1.9527v3.9053c0 2.3077-1.3314 3.284-3.284 3.284-2.0414-.08879-3.284-1.0651-3.284-3.284m9.497-3.9053h2.7515c2.4852 0 3.9941 1.4201 3.9941 3.4615s-1.5089 3.5503-3.9941 3.5503h-2.6627v-7.0118zm2.7515 5.2367c1.1538 0 1.9527-.62131 1.9527-1.7752s-.79882-1.7751-1.9527-1.7751h-.79881v3.5503zm6.7456-5.2367h5.5917v1.6864h-3.6391v1.1538h3.284v1.5976h-3.284v2.574h-1.9527zm8.3432 0h1.9527v5.3254h3.3728v1.6864h-5.3254zm10.385-.08879h1.9527l3.0177 7.1006h-2.1302l-.53255-1.2426h-2.7515l-.53255 1.2426h-2.0414zm1.7751 4.3491-.79881-1.9527-.79882 1.9527zm5.6805-4.2604h3.284c1.0651 0 1.7752.26627 2.3077.79881.44379.44379.62131.97634.62131 1.5976 0 1.0651-.53255 1.7751-1.4201 2.1302l1.6864 2.4852h-2.2189l-1.4201-2.1302h-.88757v2.1302h-1.9527zm3.1953 3.3728c.6213 0 1.0651-.35503 1.0651-.79882 0-.53254-.44379-.79882-1.0651-.79882h-1.2426v1.6864h1.2426zm5.7692-3.3728h5.6805v1.5976h-3.7278v1.0651h3.3728v1.5976h-3.3728v1.0651h3.8166v1.6864h-5.7692zm-75.71 4.3491c-.26627.6213-.88757 1.0651-1.5976 1.0651-1.0651 0-1.7751-.88757-1.7751-1.8639 0-.97634.71006-1.8639 1.7751-1.8639.79882 0 1.4201.53255 1.6864 1.1538h2.0414c-.35503-1.6864-1.7751-2.929-3.7278-2.929-2.1302 0-3.8166 1.5976-3.8166 3.6391 0 2.0414 1.5976 3.639 3.7278 3.639 1.8639 0 3.284-1.2426 3.7278-2.8402z" fill="#404041"/></g></svg>