<svg viewBox="0 0 90 90" xmlns="http://www.w3.org/2000/svg"><g fill-rule="evenodd"><path d="m45.308 52.089h-.99697l.0034 7.4161h4.033v-.91704h-3.0361l-.0033-6.4985zm6.8796 6.1137c-.2492.26042-.66832.52094-1.2348.52094-.75904 0-1.0649-.37367-1.0649-.86058 0-.73582.50976-1.0868 1.5974-1.0868.20392 0 .53241.02261.70233.05656v1.37zm-1.0309-4.4947c-.80512 0-1.5435.28525-2.1197.75996l.35234.61009c.40781-.2378.90626-.47559 1.6199-.47559.81566 0 1.1782.41896 1.1782 1.121v.36231c-.15863-.03402-.4871-.05674-.69102-.05674-1.7447 0-2.6283.61137-2.6283 1.8908 0 1.1435.70237 1.7209 1.7672 1.7209.71742 0 1.4049-.32838 1.6427-.86042l.18125.7245h.70241v-3.7927c0-1.2-.52114-2.004-2.0051-2.004zm5.2219 5.0492c-.3739 0-.70241-.04529-.95169-.15853v-3.4304c.33992-.28313.75912-.48689 1.2915-.48689.96292 0 1.3368.67927 1.3368 1.7775 0 1.5623-.60051 2.2983-1.6766 2.2983m.41896-5.0492c-.891 0-1.3706.60574-1.3706.60574v-.95664l-.0034-1.268h-.97419l.0034 7.2346c.48709.20368 1.1555.31692 1.8806.31692 1.8579 0 2.7529-1.1887 2.7529-3.238 0-1.619-.82717-2.6946-2.2885-2.6946m-22.326-.81502c.8836 0 1.4501.29435 1.824.58875l.42834-.74169c-.58393-.51173-1.3693-.78676-2.2071-.78676-2.1184 0-3.6024 1.2907-3.6024 3.8946 0 2.7286 1.601 3.7927 3.4325 3.7927.91764 0 1.6994-.21508 2.2091-.43019l-.020851-2.9153v-.91696h-2.7189v.917h1.7333l.02093 2.2133c-.22654.1132-.623.20378-1.1555.20378-1.4727 0-2.4583-.9259-2.4583-2.8757 0-1.9812 1.0195-2.9436 2.515-2.9436m7.0116-.80383h-.97431l.0033 1.2454v4.3023c0 1.2.52114 2.0039 2.0051 2.0039.20512 0 .40568-.01868.60051-.05396v-.87438c-.14104.02157-.29152.03387-.45313.03387-.81566 0-1.1782-.41888-1.1782-1.1208v-2.9662h1.6313v-.81518h-1.6314zm-3.4464 7.4161h.97431v-5.661h-.97431zm0-6.4417h.97431v-.97371h-.97431z" fill="#1d1d1d" stroke-width=".80381"/><g transform="matrix(.059622 0 0 .059622 43.746 27.484)"><path d="m21.044 340.26 68.013-209.32h-136.02l68.01 209.32z" fill="#e24329"/><path d="m21.044 340.26-68.013-209.32h-95.32l163.34 209.32z" fill="#fc6d26"/><path d="m-142.29 130.94-20.67 63.61c-1.884 5.803.18 12.16 5.117 15.744l178.88 129.97-163.33-209.32z" fill="#fca326"/><path d="m-142.29 130.94h95.32l-40.966-126.07c-2.107-6.487-11.284-6.487-13.39 0l-40.965 126.07z" fill="#e24329"/><path d="m21.044 340.26 68.013-209.32h95.32l-163.33 209.32z" fill="#fc6d26"/><path d="m184.37 130.94 20.67 63.61c1.884 5.803-.18 12.16-5.117 15.744l-178.88 129.97 163.33-209.32z" fill="#fca326"/><path d="m184.37 130.94h-95.32l40.966-126.07c2.108-6.487 11.285-6.487 13.392 0l40.963 126.07z" fill="#e24329"/></g></g></svg>