<svg height="156.58" viewBox="0 0 115.71 117.43" width="154.27" xmlns="http://www.w3.org/2000/svg" xmlns:xlink="http://www.w3.org/1999/xlink"><linearGradient id="a" gradientUnits="userSpaceOnUse" x1="43.6271304" x2="9.3409008" y1="21.9914688" y2="109.2251776"><stop offset="0" stop-color="#fd8a19"/><stop offset="1" stop-color="#f8de68"/></linearGradient><path d="m57.854-.002162s-55.561 38.95-55.22 38.707l-.0014-.0055c-.06123.03844-.11972.08041-.17742.1231h-2.4546v.18319l1.2857.87461c-.80078.9396-1.2862 2.131-1.2862 3.4427v48.049c0 7.8779 6.5176 7.8779 8.265 7.8779h80.002l9.9236 6.815 1.7747-6.815h7.4726s8.265 0 8.265-7.8779v-48.049c0-.84548-.20265-1.6409-.55968-2.3522l.55968-2.1493h-2.3988z" fill="#f8de68" stroke-width=".33621"/><path d="m57.854-.002162s-55.561 38.95-55.22 38.707l-.0014-.0055c-.06123.03844-.11967.08067-.17738.12334h-2.4547v.18298l1.286.87468c-.39329.46147-.70917.98464-.93021 1.5521h2.099c.05769-.04268.11612-.08487.17737-.12334l.0014.0055c-.341.24357 55.22-38.707 55.22-38.707l55.454 38.825h2.0419c-.061-.1567-.12722-.31071-.20236-.46028l.55965-2.1494h-2.3992l-55.454-38.825zm-57.614 41.779c-.15236.4896-.23853 1.007-.23853 1.5464v2.6096c0-1.3117.4857-2.5035 1.2865-3.443l-1.048-.71306zm115.31.26911-.40012 1.5347c.35705.71125.56017 1.5068.56017 2.3523v-2.6096c0-.44117-.0566-.86821-.16008-1.2773z" fill="#fff" opacity=".2" stroke-width=".3362"/><g stroke-width=".32824"><path d="m105.19 16.121c0-2.7092-1.354-4.0634-4.0634-4.0634h-86.55c-2.7118 0-4.0634 1.3515-4.0634 4.0634v77.395c0 7.3753 1.3515 11.063 4.0634 11.063h86.55c2.7118 0 4.0634-3.6876 4.0634-11.063z" fill="#fff"/><path d="m99.722 60.079v-3.2517h-83.311v3.2517z" fill="#e6e6e6"/><path d="m99.722 66.68v-3.2504h-83.311v3.2504z" fill="#e6e6e6"/><path d="m99.722 79.882v-3.2503h-83.311v3.2503z" fill="#e6e6e6"/><path d="m99.722 86.492v-3.2503h-83.311v3.2503z" fill="#e6e6e6"/><path d="m99.722 73.285v-3.2503h-83.311v3.2503z" fill="#e6e6e6"/><path d="m99.722 53.475v-3.2504h-83.311v3.2504z" fill="#e6e6e6"/><path d="m43.63 21.993v-3.2503h-27.225v3.2503z" fill="#e6e6e6"/><path d="m53.382 46.871v-3.2503h-36.977v3.2503z" fill="#e6e6e6"/><path d="m33.88 28.586v-3.2503h-17.473v3.2503z" fill="#e6e6e6"/><path d="m16.407 93.096h83.311v-3.2517h-83.311z" fill="#e6e6e6"/><path d="m113.3 38.823 2.3982.0078v68.944c0 1.3104-.31526 2.3051-.91402 2.9359-.71168.76157-1.748 1.1271-3.1494 1.1271h-107.58c-1.0976 0-1.9812-.2231-2.6518-.68084-.93473-.63983 0 1.6156 0 0z" opacity=".15"/><path d="m2.4629 38.83h-2.4618l10.439 72.077c.18783 1.2968.31527 2.3051.91402 2.9359.71167.76157 1.748 1.1271 3.1493 1.1271h97.137c1.0976 0 1.9812-.22312 2.6518-.68086.93474-.63981-.0654.78266-.0654-.8329z" opacity=".15"/><path d="m115.7 38.824-59.19 40.28 56.316 36.694c1.7449-1.4246 2.8673-3.652 2.8753-6.1674l-.003-70.625v-.18349z" fill="#f8de68"/></g><path d="m0 39.01v70.597c0 4.3357 3.3088 7.8264 7.4198 7.8292h.0042l101.01-.003c1.6722-.0345 3.2049-.64556 4.4284-1.6545l-112.86-76.77z" fill="url(#a)" stroke-width=".26096"/><path d="m0 104.38v5.2193c0 4.3357 3.3088 7.8264 7.4198 7.8292.0021.00002.0028 0 .0042 0l101.01-.003c1.6592-.0341 3.1801-.63723 4.3986-1.6321l.001.001c.005-.005.0113-.01.0168-.0146.003-.003.008-.005.0113-.008l-.001-.00051c1.7288-1.4256 2.8398-3.6415 2.8476-6.1434v-5.2133c-.01 2.4995-1.1203 4.713-2.8476 6.1374l.001.00051c-.003.003-.008.005-.0113.008-.005.005-.0113.01-.0168.0146l-.001-.001c-1.2186.99486-2.7396 1.5978-4.3986 1.6321l-101.01.003h-.0042c-4.111-.0032-7.4198-3.4933-7.4198-7.8292z" opacity=".2" stroke-width=".26096"/></svg>